<svg width="19" height="19" viewBox="0 0 19 19" fill="none" xmlns="http://www.w3.org/2000/svg">
<g clip-path="url(#clip0)">
<path d="M9.49991 10.7019C3.79111 10.7019 0.647095 13.4026 0.647095 18.3065C0.647095 18.6895 0.957515 19 1.34052 19H17.6593C18.0423 19 18.3527 18.6895 18.3527 18.3065C18.3527 13.4028 15.2087 10.7019 9.49991 10.7019ZM2.05918 17.6131C2.33193 13.9465 4.83173 12.0888 9.49991 12.0888C14.1681 12.0888 16.6679 13.9465 16.9409 17.6131H2.05918Z" fill="white"/>
<path d="M9.50001 0C6.87768 0 4.90027 2.01719 4.90027 4.692C4.90027 7.44514 6.9637 9.68469 9.50001 9.68469C12.0363 9.68469 14.0998 7.44514 14.0998 4.69222C14.0998 2.01719 12.1223 0 9.50001 0ZM9.50001 8.29806C7.7283 8.29806 6.28712 6.6805 6.28712 4.69222C6.28712 2.77697 7.63839 1.38685 9.50001 1.38685C11.3318 1.38685 12.7129 2.8077 12.7129 4.69222C12.7129 6.6805 11.2717 8.29806 9.50001 8.29806Z" fill="white"/>
</g>
<defs>
<clipPath id="clip0">
<rect width="19" height="19" fill="white"/>
</clipPath>
</defs>
</svg>
